<?xml version="1.0" encoding="UTF-8"?>
<svg version="1.1" xmlns="http://www.w3.org/2000/svg" width="186" height="184">
<path d="M0 0 C0.33 17.16 0.66 34.32 1 52 C9.64233897 44.71253747 9.64233897 44.71253747 18.1875 37.3125 C21 35 21 35 23 35 C23 34.34 23 33.68 23 33 C24.6875 31.3125 24.6875 31.3125 27 30 C33.88428437 30.42453087 37.69337937 36.1739549 42 41 C55.03691226 56.40516969 61.26904566 76.90293152 60 97 C58.44180358 108.37360691 55.38464207 119.80143829 50 130 C49.34 130 48.68 130 48 130 C47.79246094 130.85207031 47.58492188 131.70414063 47.37109375 132.58203125 C45.65822956 136.85199184 43.23673483 139.4302293 40.0625 142.6875 C39.52431641 143.25533203 38.98613281 143.82316406 38.43164062 144.40820312 C36.96552576 145.95024502 35.4895163 147.48057477 34 149 C33.49782959 149.55921143 32.99565918 150.11842285 32.47827148 150.69458008 C31.99044189 151.12536865 31.5026123 151.55615723 31 152 C27.51967799 151.73897585 25.94903702 150.96602468 23 149 C23 148.34 23 147.68 23 147 C22.11465576 146.59116577 22.11465576 146.59116577 21.21142578 146.17407227 C19.05637188 145.0299285 17.4441707 143.82057614 15.6171875 142.21484375 C15.00746094 141.68439453 14.39773437 141.15394531 13.76953125 140.60742188 C13.14433594 140.05634766 12.51914063 139.50527344 11.875 138.9375 C10.62398515 137.8406326 9.37144995 136.74549606 8.1171875 135.65234375 C7.56659668 135.16757568 7.01600586 134.68280762 6.44873047 134.18334961 C4.99022263 132.90366815 4.99022263 132.90366815 3 132 C3 131.34 3 130.68 3 130 C2.34 130 1.68 130 1 130 C0.67 147.16 0.34 164.32 0 182 C-3.67347079 181.0816323 -5.93254166 180.1301794 -9 178 C-9 177.34 -9 176.68 -9 176 C-9.67675781 175.78730469 -10.35351562 175.57460937 -11.05078125 175.35546875 C-14.94808378 173.56425818 -17.90693043 171.04457002 -21.1875 168.3125 C-26.41027679 164.03040013 -31.67973481 160.00446603 -37.33984375 156.3046875 C-38.16162109 155.65886719 -38.16162109 155.65886719 -39 155 C-39 154.34 -39 153.68 -39 153 C-40.11375 152.62875 -40.11375 152.62875 -41.25 152.25 C-44.50919563 150.76854744 -45.8909105 149.92604359 -48 147 C-48.5926046 143.51695708 -48.50454987 140.0650087 -48.45410156 136.54003906 C-48.45468567 135.47631577 -48.45526978 134.41259247 -48.45587158 133.31663513 C-48.45308401 129.79930026 -48.42195886 126.28281191 -48.390625 122.765625 C-48.38316504 120.3275397 -48.37747095 117.88944841 -48.37347412 115.45135498 C-48.35819867 109.03309588 -48.31889977 102.61519862 -48.2746582 96.19708252 C-48.23374707 89.64836523 -48.21547196 83.09958949 -48.1953125 76.55078125 C-48.15240789 63.70036642 -48.08490142 50.85020245 -48 38 C-46.515 37.505 -46.515 37.505 -45 37 C-45 36.34 -45 35.68 -45 35 C-44.34 35 -43.68 35 -43 35 C-43 34.34 -43 33.68 -43 33 C-40.88877538 31.2161203 -38.76738319 29.53597078 -36.5625 27.875 C-31.3849036 23.9091396 -26.43357874 19.82961615 -21.671875 15.36328125 C-20 14 -20 14 -18 14 C-18 13.34 -18 12.68 -18 12 C-16.13671875 10.30859375 -16.13671875 10.30859375 -13.6875 8.4375 C-12.48673828 7.50744141 -12.48673828 7.50744141 -11.26171875 6.55859375 C-9 5 -9 5 -6 4 C-6 3.34 -6 2.68 -6 2 C-3 0 -3 0 0 0 Z M0 63 C0 81.48 0 99.96 0 119 C7.45518927 111.54481073 11.19274202 104.51972244 11.38037109 93.86816406 C11.35478356 81.39540544 9.6390462 72.51624166 1 63 C0.67 63 0.34 63 0 63 Z " fill="#0094FD" transform="translate(54,0)"/>
<path d="M0 0 C0 0.66 0 1.32 0 2 C0.66 2 1.32 2 2 2 C2 2.66 2 3.32 2 4 C2.66 4 3.32 4 4 4 C4 4.66 4 5.32 4 6 C4.57492188 6.24234375 5.14984375 6.4846875 5.7421875 6.734375 C24.42573541 17.20750566 35.24987822 46.19187678 40.7109375 65.515625 C47.36699066 92.33276672 42.56893122 123.78573767 28.4609375 147.33203125 C25.40915453 152.28911358 22.22894139 157.15658791 19 162 C18.34 162 17.68 162 17 162 C16.8040625 162.68449219 16.608125 163.36898437 16.40625 164.07421875 C14.47548485 168.09128291 11.66925331 170.72918089 8.5 173.8125 C7.90574219 174.40998047 7.31148437 175.00746094 6.69921875 175.62304688 C2.26724107 180 2.26724107 180 0 180 C0 180.66 0 181.32 0 182 C-4.42071786 181.49924612 -6.49336011 180.03687324 -9.6875 177 C-12.60666651 174.15990613 -12.60666651 174.15990613 -16 172 C-16 171.34 -16 170.68 -16 170 C-16.57878906 169.72800781 -17.15757813 169.45601562 -17.75390625 169.17578125 C-23.57060431 166.13086627 -28.51483324 161.7490001 -33 157 C-33.66 156.34 -34.32 155.68 -35 155 C-34.9375 153.125 -34.9375 153.125 -34 151 C-32.37373596 149.61767557 -30.7074998 148.28062485 -29 147 C-28.505 146.01 -28.505 146.01 -28 145 C-27.34 145 -26.68 145 -26 145 C-25.74863281 144.44570312 -25.49726562 143.89140625 -25.23828125 143.3203125 C-23.79312303 140.61235042 -22.04839161 138.31586357 -20.1875 135.875 C-11.62910779 124.14396691 -6.62782625 110.60378454 -6 96 C-5.96003906 95.23816406 -5.92007813 94.47632812 -5.87890625 93.69140625 C-5.37801463 75.27627311 -11.08210672 55.8743527 -23 41.60546875 C-24.13821363 40.47952035 -25.30331407 39.37949544 -26.50390625 38.3203125 C-28.62436114 36.44899722 -30.2375786 34.20302675 -32 32 C-32.99 31.34 -33.98 30.68 -35 30 C-35 28.68 -35 27.36 -35 26 C-32.9453125 23.95703125 -32.9453125 23.95703125 -30.125 21.8125 C-26.26786907 18.79988813 -22.54157471 15.74935243 -18.9375 12.4375 C-15.55257397 9.37109173 -12.13696298 6.35813685 -8.625 3.4375 C-7.43777344 2.44556641 -7.43777344 2.44556641 -6.2265625 1.43359375 C-4 0 -4 0 0 0 Z " fill="#FAB03B" transform="translate(133,0)"/>
<path d="M0 0 C9.66801132 3.11366835 17.93849991 16.56787334 22.37890625 25.20703125 C32.69377248 48.06700505 32.46338642 69.63806291 23.83984375 92.9296875 C22.87615977 95.31186341 21.85493986 97.5851391 20.65625 99.85546875 C19.99625 99.85546875 19.33625 99.85546875 18.65625 99.85546875 C18.44871094 100.70753906 18.24117187 101.55960937 18.02734375 102.4375 C16.31447956 106.70746059 13.89298483 109.28569805 10.71875 112.54296875 C10.18056641 113.11080078 9.64238281 113.67863281 9.08789062 114.26367188 C7.62177576 115.80571377 6.1457663 117.33604352 4.65625 118.85546875 C4.15407959 119.41468018 3.65190918 119.9738916 3.13452148 120.55004883 C2.64669189 120.9808374 2.1588623 121.41162598 1.65625 121.85546875 C-1.82407201 121.5944446 -3.39471298 120.82149343 -6.34375 118.85546875 C-6.34375 118.19546875 -6.34375 117.53546875 -6.34375 116.85546875 C-7.22909424 116.44663452 -7.22909424 116.44663452 -8.13232422 116.02954102 C-10.28737812 114.88539725 -11.8995793 113.67604489 -13.7265625 112.0703125 C-14.33628906 111.53986328 -14.94601563 111.00941406 -15.57421875 110.46289062 C-16.51201172 109.6362793 -16.51201172 109.6362793 -17.46875 108.79296875 C-18.71976485 107.69610135 -19.97230005 106.60096481 -21.2265625 105.5078125 C-21.77715332 105.02304443 -22.32774414 104.53827637 -22.89501953 104.03881836 C-24.35352737 102.7591369 -24.35352737 102.7591369 -26.34375 101.85546875 C-26.34375 101.19546875 -26.34375 100.53546875 -26.34375 99.85546875 C-27.33375 99.52546875 -28.32375 99.19546875 -29.34375 98.85546875 C-30.98097272 95.58102331 -30.80708755 93.50425199 -30.34375 89.85546875 C-28.921875 87.74609375 -28.921875 87.74609375 -27.09375 85.54296875 C-18.86957057 75.53382543 -18.33491789 65.67462476 -19.12060547 53.09130859 C-19.82044582 46.07912268 -22.68349511 41.53529867 -27.09375 36.23046875 C-29.8175999 32.84791005 -31.64779183 30.33989901 -31.21484375 25.88671875 C-29.13649523 21.04034552 -24.38776883 18.01485846 -20.34375 14.85546875 C-19.43625 14.10394531 -18.52875 13.35242187 -17.59375 12.578125 C-10.50881969 6.74781776 -10.50881969 6.74781776 -6.34375 4.85546875 C-6.34375 4.19546875 -6.34375 3.53546875 -6.34375 2.85546875 C-4.18461091 0.69632966 -3.10097962 -0.19122708 0 0 Z " fill="#FD6B79" transform="translate(83.34375,30.14453125)"/>
<path d="M0 0 C0 60.06 0 120.12 0 182 C-3.67347079 181.0816323 -5.93254166 180.1301794 -9 178 C-9 177.34 -9 176.68 -9 176 C-9.66386719 175.79375 -10.32773437 175.5875 -11.01171875 175.375 C-15.10641208 173.49090581 -18.32676079 170.828619 -21.8125 168 C-22.50537109 167.4534375 -23.19824219 166.906875 -23.91210938 166.34375 C-24.8934082 165.55484375 -24.8934082 165.55484375 -25.89453125 164.75 C-26.49112549 164.27046875 -27.08771973 163.7909375 -27.70239258 163.296875 C-28.13060303 162.86890625 -28.55881348 162.4409375 -29 162 C-29 161.34 -29 160.68 -29 160 C-27.35 160.66 -25.7 161.32 -24 162 C-24 162.66 -24 163.32 -24 164 C-22.35 164.66 -20.7 165.32 -19 166 C-19 166.66 -19 167.32 -19 168 C-17.35 168.66 -15.7 169.32 -14 170 C-14 170.66 -14 171.32 -14 172 C-8.94990405 172.93786082 -8.94990405 172.93786082 -4 172 C-4 117.22 -4 62.44 -4 6 C-5.32 6 -6.64 6 -8 6 C-8.33 6.99 -8.66 7.98 -9 9 C-11.0625 9.6875 -11.0625 9.6875 -13 10 C-13 10.99 -13 11.98 -13 13 C-14.32 13.33 -15.64 13.66 -17 14 C-15.63088196 10.8510285 -14.1247864 8.9521513 -11.5 6.75 C-10.58734375 5.96882812 -10.58734375 5.96882812 -9.65625 5.171875 C-8 4 -8 4 -6 4 C-6 3.34 -6 2.68 -6 2 C-3 0 -3 0 0 0 Z " fill="#0F91EB" transform="translate(54,0)"/>
<path d="M0 0 C0.33 0.99 0.66 1.98 1 3 C0.34 3 -0.32 3 -1 3 C-1.33 3.99 -1.66 4.98 -2 6 C-3.64821244 7.03013277 -5.31503702 8.03114628 -7 9 C-7.33 9.66 -7.66 10.32 -8 11 C-8.99 11.33 -9.98 11.66 -11 12 C-11.825 12.825 -12.65 13.65 -13.5 14.5 C-16 17 -16 17 -19 18 C-19 19.65 -19 21.3 -19 23 C-19.99 23 -20.98 23 -22 23 C-22 56.33 -22 89.66 -22 124 C-22.66 124 -23.32 124 -24 124 C-24 89.68 -24 55.36 -24 20 C-23.01 19.67 -22.02 19.34 -21 19 C-21 18.34 -21 17.68 -21 17 C-20.34 17 -19.68 17 -19 17 C-19 16.34 -19 15.68 -19 15 C-16.80644768 13.12998922 -14.60515924 11.36568034 -12.3125 9.625 C-11.05849131 8.65898713 -9.80458335 7.69284349 -8.55078125 6.7265625 C-7.94830566 6.26540039 -7.34583008 5.80423828 -6.72509766 5.32910156 C-4.45885852 3.58307753 -2.22639124 1.79643805 0 0 Z " fill="#87CDF6" transform="translate(30,18)"/>
<path d="M0 0 C0.33 0.99 0.66 1.98 1 3 C1.66 3 2.32 3 3 3 C4.68561267 8.21443596 5.38512698 12.97539135 5.625 18.4375 C5.66367188 19.16904297 5.70234375 19.90058594 5.7421875 20.65429688 C5.83533984 22.43583532 5.91870286 24.21788122 6 26 C5.34 26.33 4.68 26.66 4 27 C3.38356018 29.51458401 3.38356018 29.51458401 3 32.4375 C2.21984733 37.78015267 2.21984733 37.78015267 0 40 C-0.71408334 41.98356483 -1.38617742 43.98315437 -2 46 C-3.32 46 -4.64 46 -6 46 C-6 46.99 -6 47.98 -6 49 C-6.99 49.495 -6.99 49.495 -8 50 C-8.65213292 52.02463255 -8.65213292 52.02463255 -9 54 C-8.34 54 -7.68 54 -7 54 C-7.33 54.99 -7.66 55.98 -8 57 C-10 55 -10 55 -10.5625 51.9375 C-9.96688836 47.76821853 -9.33344849 46.80755343 -6.75 43.6875 C1.52175158 33.62045954 1.76723965 23.90013871 1.23339844 11.28369141 C1.00723798 9.07082015 0.56505561 7.13430757 -0.0859375 5.01171875 C-1 2 -1 2 0 0 Z " fill="#EB7381" transform="translate(63,72)"/>
<path d="M0 0 C0.99 0 1.98 0 3 0 C4.64988901 5.49770996 4.18440482 11.25166216 4.1875 16.9375 C4.19974609 18.11763672 4.21199219 19.29777344 4.22460938 20.51367188 C4.22750977 22.22200195 4.22750977 22.22200195 4.23046875 23.96484375 C4.23457764 25.0024585 4.23868652 26.04007324 4.24291992 27.10913086 C3.98976238 30.1218328 3.24068444 32.261571 2 35 C1.59582781 36.429572 1.21799316 37.86702882 0.875 39.3125 C0.58625 40.529375 0.2975 41.74625 0 43 C-1.31902787 40.81796505 -2.05408078 39.53366504 -1.79296875 36.95703125 C-1.59316406 36.24933594 -1.39335938 35.54164062 -1.1875 34.8125 C1.74633217 23.22859492 1.25641037 11.80128314 0 0 Z " fill="#EFB75E" transform="translate(126,75)"/>
<path d="M0 0 C0.33 0.99 0.66 1.98 1 3 C0.34 3 -0.32 3 -1 3 C-1.33 3.99 -1.66 4.98 -2 6 C-3.64821244 7.03013277 -5.31503702 8.03114628 -7 9 C-7.33 9.66 -7.66 10.32 -8 11 C-8.99 11.33 -9.98 11.66 -11 12 C-11.825 12.825 -12.65 13.65 -13.5 14.5 C-16 17 -16 17 -19 18 C-19 19.65 -19 21.3 -19 23 C-19.99 23 -20.98 23 -22 23 C-22.33 24.32 -22.66 25.64 -23 27 C-23 24.36 -23 21.72 -23 19 C-22.34 19 -21.68 19 -21 19 C-21 18.34 -21 17.68 -21 17 C-20.34 17 -19.68 17 -19 17 C-19 16.34 -19 15.68 -19 15 C-16.80644768 13.12998922 -14.60515924 11.36568034 -12.3125 9.625 C-11.05849131 8.65898713 -9.80458335 7.69284349 -8.55078125 6.7265625 C-7.94830566 6.26540039 -7.34583008 5.80423828 -6.72509766 5.32910156 C-4.45885852 3.58307753 -2.22639124 1.79643805 0 0 Z " fill="#0D91EB" transform="translate(30,18)"/>
<path d="M0 0 C0.33 0 0.66 0 1 0 C1.80385356 10.04816953 -1.71559006 20.00273912 -6 29 C-6.33 29 -6.66 29 -7 29 C-7.125 22.375 -7.125 22.375 -6 19 C-5.34 19 -4.68 19 -4 19 C-3.67 14.05 -3.34 9.1 -3 4 C-2.01 3.67 -1.02 3.34 0 3 C0 2.01 0 1.02 0 0 Z " fill="#EFBA53" transform="translate(173,107)"/>
<path d="M0 0 C6.10099751 7.20380173 8.2734409 17.89632473 10 27 C8.68 26.67 7.36 26.34 6 26 C5.34 22.37 4.68 18.74 4 15 C3.01 14.67 2.02 14.34 1 14 C1.020625 12.80375 1.04125 11.6075 1.0625 10.375 C1.06882571 6.81995131 0.69888875 3.49444376 0 0 Z " fill="#EDB65A" transform="translate(164,42)"/>
<path d="M0 0 C-0.25 1.875 -0.25 1.875 -1 4 C-3 5.125 -3 5.125 -5 6 C-5.33 6.66 -5.66 7.32 -6 8 C-6.66 8 -7.32 8 -8 8 C-6.66937406 11.99187781 -4.99359189 14.09995785 -2 17 C-0.01365642 20.07883255 0.20193076 22.36524624 0 26 C-0.64388672 25.12601563 -0.64388672 25.12601563 -1.30078125 24.234375 C-2.36235989 22.8384601 -3.45934888 21.4680047 -4.60546875 20.140625 C-7.31405376 16.90369872 -9.43385804 14.17176311 -9.8125 9.875 C-8.83638433 5.21967912 -7.37680981 3.85530965 -3.7265625 1.03125 C-2 0 -2 0 0 0 Z " fill="#D27484" transform="translate(62,48)"/>
<path d="M0 0 C0.5775 0.226875 1.155 0.45375 1.75 0.6875 C1.09 0.6875 0.43 0.6875 -0.25 0.6875 C-0.25 1.6775 -0.25 2.6675 -0.25 3.6875 C-2.89738916 5.1481285 -4.14448334 5.6875 -7.25 5.6875 C-7.25 6.3475 -7.25 7.0075 -7.25 7.6875 C-8.24 7.6875 -9.23 7.6875 -10.25 7.6875 C-10.25 9.3375 -10.25 10.9875 -10.25 12.6875 C-11.9 12.6875 -13.55 12.6875 -15.25 12.6875 C-15.58 13.6775 -15.91 14.6675 -16.25 15.6875 C-17.57 15.3575 -18.89 15.0275 -20.25 14.6875 C-18.00131288 12.7484583 -15.75111139 10.81122378 -13.5 8.875 C-12.86578125 8.32779297 -12.2315625 7.78058594 -11.578125 7.21679688 C-2.73790761 -0.38026495 -2.73790761 -0.38026495 0 0 Z " fill="#EBB650" transform="translate(130.25,1.3125)"/>
<path d="M0 0 C0.33 0 0.66 0 1 0 C1.42589023 5.53657294 -0.094753 9.89665983 -2 15 C-3.32 15 -4.64 15 -6 15 C-6 15.99 -6 16.98 -6 18 C-6.66 18.33 -7.32 18.66 -8 19 C-8.65213292 21.02463255 -8.65213292 21.02463255 -9 23 C-8.34 23 -7.68 23 -7 23 C-7.33 23.99 -7.66 24.98 -8 26 C-10 24 -10 24 -10.5625 20.9375 C-9.86017341 16.02121386 -7.90224741 13.99363966 -4.7578125 10.2890625 C-2.26356922 7.04100347 -1.20290769 3.89176016 0 0 Z " fill="#E76778" transform="translate(63,103)"/>
<path d="M0 0 C0.66 0 1.32 0 2 0 C3.71318772 7.70934476 3.71318772 16.29065524 2 24 C1.34 23.67 0.68 23.34 0 23 C0 15.41 0 7.82 0 0 Z " fill="#EE707F" transform="translate(111,79)"/>
<path d="M0 0 C0.99 0 1.98 0 3 0 C1.40679067 8.09881408 -4.10368385 15.51958156 -9 22 C-9.33 21.34 -9.66 20.68 -10 20 C-8.53284414 16.00357544 -6.25876341 12.38053443 -3.875 8.875 C-1.9768109 5.96444338 -0.95067615 3.32736652 0 0 Z " fill="#EEB955" transform="translate(163,136)"/>
<path d="M0 0 C0.66 0 1.32 0 2 0 C2 0.66 2 1.32 2 2 C2.99 2.33 3.98 2.66 5 3 C6.68762851 4.6454378 8.3540349 6.31288577 10 8 C10.99 8.66 11.98 9.32 13 10 C13 10.66 13 11.32 13 12 C14.32 12.33 15.64 12.66 17 13 C16.67 13.99 16.34 14.98 16 16 C14.82780457 15.21654285 13.66236332 14.42297164 12.5 13.625 C11.8503125 13.18414062 11.200625 12.74328125 10.53125 12.2890625 C10.0259375 11.86367187 9.520625 11.43828125 9 11 C9 10.34 9 9.68 9 9 C8.2575 8.7525 7.515 8.505 6.75 8.25 C3.75026545 6.8864843 2.07922733 5.54127785 0 3 C0 2.01 0 1.02 0 0 Z " fill="#1E98E3" transform="translate(6,144)"/>
<path d="M0 0 C2.475 0.99 2.475 0.99 5 2 C5 2.66 5 3.32 5 4 C7.475 4.99 7.475 4.99 10 6 C10 6.66 10 7.32 10 8 C12.475 8.99 12.475 8.99 15 10 C15 10.66 15 11.32 15 12 C16.32 12.33 17.64 12.66 19 13 C17.22949219 13.65356445 17.22949219 13.65356445 15 14 C13.16894531 13.04370117 13.16894531 13.04370117 11.328125 11.54296875 C10.66425781 11.00736328 10.00039063 10.47175781 9.31640625 9.91992188 C8.63449219 9.34822266 7.95257813 8.77652344 7.25 8.1875 C6.55261719 7.62740234 5.85523438 7.06730469 5.13671875 6.49023438 C1.3847486 3.41743691 1.3847486 3.41743691 0 2 C0 1.34 0 0.68 0 0 Z " fill="#1693E2" transform="translate(25,160)"/>
<path d="M0 0 C0.99 0 1.98 0 3 0 C2.67 1.98 2.34 3.96 2 6 C1.34 6 0.68 6 0 6 C0 6.99 0 7.98 0 9 C-0.66 9 -1.32 9 -2 9 C-2.33 10.65 -2.66 12.3 -3 14 C-3.99 13.67 -4.98 13.34 -6 13 C-4.02 8.71 -2.04 4.42 0 0 Z " fill="#EEB348" transform="translate(122,120)"/>
<path d="M0 0 C0.99 0 1.98 0 3 0 C3.33 0.99 3.66 1.98 4 3 C4.66 3.33 5.32 3.66 6 4 C9.10791367 9.98561151 9.10791367 9.98561151 8.6875 13.9375 C8.460625 14.618125 8.23375 15.29875 8 16 C6.13513805 13.20270707 4.49727525 10.38032298 2.875 7.4375 C2.33617188 6.46683594 1.79734375 5.49617188 1.2421875 4.49609375 C0 2 0 2 0 0 Z " fill="#EFB750" transform="translate(116,49)"/>
<path d="M0 0 C5.38191955 3.58794636 8.49004873 8.69967012 12 14 C11.01 14.33 10.02 14.66 9 15 C8.60167969 14.37351562 8.20335938 13.74703125 7.79296875 13.1015625 C7.26316406 12.28429688 6.73335938 11.46703125 6.1875 10.625 C5.66542969 9.81289063 5.14335938 9.00078125 4.60546875 8.1640625 C3.01562803 5.76649759 3.01562803 5.76649759 0 4 C0 2.68 0 1.36 0 0 Z " fill="#EA747F" transform="translate(91,37)"/>
<path d="M0 0 C-1.30044983 2.90100346 -2.70898446 4.81312153 -5 7 C-5 7.33 -5 7.66 -5 8 C-6.65 8 -8.3 8 -10 8 C-10.33 8.99 -10.66 9.98 -11 11 C-11.66 10.67 -12.32 10.34 -13 10 C-5.04545455 0 -5.04545455 0 0 0 Z " fill="#E96D7D" transform="translate(76,37)"/>
<path d="M0 0 C0.33 0.99 0.66 1.98 1 3 C1.66 3 2.32 3 3 3 C4.47075246 7.41225737 5.36884358 10.48281619 4 15 C3.34 15 2.68 15 2 15 C1.47076428 12.87707704 0.95184623 10.75157949 0.4375 8.625 C0.14746094 7.44164063 -0.14257812 6.25828125 -0.44140625 5.0390625 C-1 2 -1 2 0 0 Z " fill="#F06A7A" transform="translate(63,72)"/>
<path d="M0 0 C1.32 0 2.64 0 4 0 C4 0.66 4 1.32 4 2 C4.66 2 5.32 2 6 2 C6 2.66 6 3.32 6 4 C6.66 4 7.32 4 8 4 C8 4.66 8 5.32 8 6 C8.99 6.33 9.98 6.66 11 7 C9.3125 8.1875 9.3125 8.1875 7 9 C4.375 8 4.375 8 2 6 C0.6875 2.8125 0.6875 2.8125 0 0 Z " fill="#F4B445" transform="translate(129,0)"/>
<path d="M0 0 C2 0 2 0 4.125 2 C4.74375 2.66 5.3625 3.32 6 4 C6.99 3.67 7.98 3.34 9 3 C9 4.32 9 5.64 9 7 C10.4166747 8.7511573 10.4166747 8.7511573 12 10 C7.8275894 9.48118887 5.74583179 8.28848726 2.6875 5.4375 C1.99011719 4.79683594 1.29273437 4.15617188 0.57421875 3.49609375 C0.05472656 3.00238281 -0.46476562 2.50867188 -1 2 C-0.67 1.34 -0.34 0.68 0 0 Z " fill="#F0B457" transform="translate(121,172)"/>
<path d="M0 0 C4.69159716 3.38772897 9.0299782 6.78185183 13 11 C12.01 11.33 11.02 11.66 10 12 C8.32448647 10.57282151 6.65980691 9.13291518 5 7.6875 C3.6078125 6.48673828 3.6078125 6.48673828 2.1875 5.26171875 C0 3 0 3 0 0 Z " fill="#EDB84C" transform="translate(98,152)"/>
<path d="M0 0 C0.33 0 0.66 0 1 0 C1.18194291 4.63954425 0.85437682 7.77614168 -1 12 C-1.73532964 14.65314884 -2.36416837 17.32042386 -3 20 C-4.125 18.4375 -4.125 18.4375 -5 16 C-4.125 12.25 -4.125 12.25 -3 9 C-2.34 9 -1.68 9 -1 9 C-0.67 6.03 -0.34 3.06 0 0 Z " fill="#EEB44D" transform="translate(129,98)"/>
<path d="M0 0 C1.65 0 3.3 0 5 0 C5 0.66 5 1.32 5 2 C6.32 2.66 7.64 3.32 9 4 C9 4.66 9 5.32 9 6 C9.99 6 10.98 6 12 6 C11.67 7.32 11.34 8.64 11 10 C9.16375669 8.52444734 7.3310715 7.04446569 5.5 5.5625 C4.4790625 4.73878906 3.458125 3.91507813 2.40625 3.06640625 C1.6121875 2.38449219 0.818125 1.70257813 0 1 C0 0.67 0 0.34 0 0 Z " fill="#E37D8B" transform="translate(57,131)"/>
<path d="M0 0 C0.66 0 1.32 0 2 0 C1.91433603 2.912575 1.42089045 4.56798024 -0.625 6.66796875 C-2.38391375 8.16091772 -4.16313019 9.60436262 -6 11 C-5.22093924 7.52761491 -4.04464928 4.94429496 -2 2 C-1.34 2 -0.68 2 0 2 C0 1.34 0 0.68 0 0 Z " fill="#EE7986" transform="translate(94,137)"/>
<path d="M0 0 C2.5 0.1875 2.5 0.1875 5 1 C5.66 1.99 6.32 2.98 7 4 C5.63875 3.938125 5.63875 3.938125 4.25 3.875 C1.1217954 3.99531556 -0.38614006 4.3914708 -3 6 C-2.42655063 3.13275314 -2.1385485 2.1385485 0 0 Z " fill="#EA707A" transform="translate(81,30)"/>
<path d="M0 0 C0.99 0.33 1.98 0.66 3 1 C1.68 4.63 0.36 8.26 -1 12 C-1.66 12 -2.32 12 -3 12 C-3 10.35 -3 8.7 -3 7 C-2.34 7 -1.68 7 -1 7 C-0.67 4.69 -0.34 2.38 0 0 Z " fill="#EF7A85" transform="translate(108,111)"/>
<path d="M0 0 C-0.99 1.32 -1.98 2.64 -3 4 C-4.65 3.67 -6.3 3.34 -8 3 C-8.33 2.01 -8.66 1.02 -9 0 C-5.93109813 -1.53445094 -3.29905734 -0.54984289 0 0 Z " fill="#E86B82" transform="translate(88,148)"/>
<path d="M0 0 C6.86690647 5.37410072 6.86690647 5.37410072 8 9 C8.125 11.75 8.125 11.75 8 14 C6.99152789 12.67306301 5.99450461 11.33743723 5 10 C4.566875 9.4328125 4.13375 8.865625 3.6875 8.28125 C3.23375 7.6728125 2.78 7.064375 2.3125 6.4375 C1.65701172 5.56931641 1.65701172 5.56931641 0.98828125 4.68359375 C0 3 0 3 0 0 Z " fill="#E07180" transform="translate(54,60)"/>
<path d="M0 0 C0.33 0.99 0.66 1.98 1 3 C-1.64 5.64 -4.28 8.28 -7 11 C-7.33 10.01 -7.66 9.02 -8 8 C-7.071875 7.6596875 -7.071875 7.6596875 -6.125 7.3125 C-3.37739861 5.61545208 -3.06789821 3.97485929 -2 1 C-1.34 0.67 -0.68 0.34 0 0 Z " fill="#ECB65E" transform="translate(142,169)"/>
<path d="M0 0 C0.66 0.99 1.32 1.98 2 3 C1.34 3 0.68 3 0 3 C-0.66 4.65 -1.32 6.3 -2 8 C-2.66 8 -3.32 8 -4 8 C-4 8.99 -4 9.98 -4 11 C-4.66 11 -5.32 11 -6 11 C-6.33 10.01 -6.66 9.02 -7 8 C-6.34 8 -5.68 8 -5 8 C-4.731875 7.4225 -4.46375 6.845 -4.1875 6.25 C-2.98280141 3.9674132 -1.59201885 2.0262058 0 0 Z " fill="#F3BD57" transform="translate(112,137)"/>
<path d="M0 0 C0.33 0.99 0.66 1.98 1 3 C0.34 3 -0.32 3 -1 3 C-1.33 3.99 -1.66 4.98 -2 6 C-4.21701147 7.58965571 -6.57862473 8.72327486 -9 10 C-9 9.01 -9 8.02 -9 7 C-7.03125 5.17578125 -7.03125 5.17578125 -4.5 3.3125 C-3.6646875 2.68988281 -2.829375 2.06726563 -1.96875 1.42578125 C-0.99421875 0.72001953 -0.99421875 0.72001953 0 0 Z " fill="#0C8CD6" transform="translate(30,18)"/>
<path d="M0 0 C2.6815279 3.07692746 3.42087807 5.19734663 3.6875 9.25 C3.75324219 10.14203125 3.81898438 11.0340625 3.88671875 11.953125 C3.92410156 12.62859375 3.96148437 13.3040625 4 14 C3.01 14 2.02 14 1 14 C1.020625 12.80375 1.04125 11.6075 1.0625 10.375 C1.06882571 6.81995131 0.69888875 3.49444376 0 0 Z " fill="#F4B652" transform="translate(164,42)"/>
<path d="M0 0 C3 1 3 1 4.75 3.8125 C5.98589446 6.96403086 6.28222189 7.96929372 5 11 C4.67 9.68 4.34 8.36 4 7 C3.34 7 2.68 7 2 7 C0.5393715 4.35261084 0 3.10551666 0 0 Z " fill="#EEB659" transform="translate(157,31)"/>
<path d="M0 0 C0.804375 0.66 1.60875 1.32 2.4375 2 C4.58961915 4.10254514 4.58961915 4.10254514 6 4 C6 5.65 6 7.3 6 9 C2.00003714 7.66667905 1.16217663 5.5042173 -1 2 C-0.67 1.34 -0.34 0.68 0 0 Z " fill="#F0AE4D" transform="translate(110,38)"/>
<path d="M0 0 C0.66 0.99 1.32 1.98 2 3 C1.01 3.33 0.02 3.66 -1 4 C-1.9590625 5.051875 -1.9590625 5.051875 -2.9375 6.125 C-3.618125 6.74375 -4.29875 7.3625 -5 8 C-6.32 7.67 -7.64 7.34 -9 7 C-6.03 4.69 -3.06 2.38 0 0 Z " fill="#39A0E7" transform="translate(20,26)"/>
<path d="M0 0 C0.66 0.66 1.32 1.32 2 2 C1.01 3.485 1.01 3.485 0 5 C0 5.99 0 6.98 0 8 C-1.32 7.67 -2.64 7.34 -4 7 C-4 5.68 -4 4.36 -4 3 C-2 1.25 -2 1.25 0 0 Z " fill="#F1B44D" transform="translate(102,23)"/>
<path d="M0 0 C2.9375 1.25 2.9375 1.25 6 3 C6.875 5.1875 6.875 5.1875 7 7 C4 7 4 7 1.3125 4.5 C0.549375 3.675 -0.21375 2.85 -1 2 C-0.67 1.34 -0.34 0.68 0 0 Z " fill="#EC8187" transform="translate(70,139)"/>
<path d="M0 0 C0.33 0.99 0.66 1.98 1 3 C-0.65 3.66 -2.3 4.32 -4 5 C-4 5.99 -4 6.98 -4 8 C-5.32 8.33 -6.64 8.66 -8 9 C-6.4169423 4.7257442 -3.49431596 2.73468206 0 0 Z " fill="#1997E6" transform="translate(45,5)"/>
<path d="M0 0 C0.66 0 1.32 0 2 0 C2.33 0.66 2.66 1.32 3 2 C5.01669827 3.13350534 5.01669827 3.13350534 7 4 C7 4.99 7 5.98 7 7 C6.01 7 5.02 7 4 7 C4 6.34 4 5.68 4 5 C3.01 4.67 2.02 4.34 1 4 C0.3125 1.9375 0.3125 1.9375 0 0 Z " fill="#EEB158" transform="translate(113,165)"/>
<path d="M0 0 C0.33 0 0.66 0 1 0 C1.125 6.75 1.125 6.75 0 9 C-0.99 9 -1.98 9 -3 9 C-2.01 6.03 -1.02 3.06 0 0 Z " fill="#E86D76" transform="translate(111,102)"/>
<path d="M0 0 C0.33 0 0.66 0 1 0 C1.3125 2.1875 1.3125 2.1875 1 5 C-1.5 7.8125 -1.5 7.8125 -4 10 C-2.99806563 6.20696275 -2.18975773 3.28463659 0 0 Z " fill="#E8AD4C" transform="translate(157,148)"/>
<path d="M0 0 C1.98 0.99 1.98 0.99 4 2 C4 2.66 4 3.32 4 4 C5.32 4.33 6.64 4.66 8 5 C7.67 5.99 7.34 6.98 7 8 C5.82512964 7.24172908 4.66027408 6.46792245 3.5 5.6875 C2.52546875 5.04361328 2.52546875 5.04361328 1.53125 4.38671875 C1.0259375 3.92910156 0.520625 3.47148437 0 3 C0 2.01 0 1.02 0 0 Z " fill="#158AD6" transform="translate(15,152)"/>
<path d="M0 0 C3.82946843 1.45255699 5.12050295 3.42895561 7 7 C6.01 7 5.02 7 4 7 C4 6.34 4 5.68 4 5 C3.01 4.67 2.02 4.34 1 4 C0.3125 1.9375 0.3125 1.9375 0 0 Z " fill="#ECB24C" transform="translate(146,16)"/>
<path d="M0 0 C2.475 0.99 2.475 0.99 5 2 C5 2.66 5 3.32 5 4 C5.99 4.33 6.98 4.66 8 5 C7.01 5.33 6.02 5.66 5 6 C2.3125 4.1875 2.3125 4.1875 0 2 C0 1.34 0 0.68 0 0 Z " fill="#0E89DA" transform="translate(25,160)"/>
<path d="M0 0 C0.66 0.99 1.32 1.98 2 3 C1.34 3 0.68 3 0 3 C0 3.66 0 4.32 0 5 C-0.66 5 -1.32 5 -2 5 C-2.33 5.66 -2.66 6.32 -3 7 C-3.66 6.34 -4.32 5.68 -5 5 C-3.35 3.35 -1.7 1.7 0 0 Z " fill="#EDAE40" transform="translate(105,146)"/>
<path d="M0 0 C0.99 0.33 1.98 0.66 3 1 C2.34 1.66 1.68 2.32 1 3 C0.3574765 5.06874034 0.3574765 5.06874034 0 7 C0.66 7 1.32 7 2 7 C1.67 7.99 1.34 8.98 1 10 C-1 8 -1 8 -1.1875 4.4375 C-1 1 -1 1 0 0 Z " fill="#D37789" transform="translate(54,119)"/>
<path d="M0 0 C0 1.65 0 3.3 0 5 C-0.66 5 -1.32 5 -2 5 C-2 6.65 -2 8.3 -2 10 C-2.33 10 -2.66 10 -3 10 C-3 7.03 -3 4.06 -3 1 C-1 0 -1 0 0 0 Z " fill="#F18997" transform="translate(68,86)"/>
<path d="M0 0 C0.33 0.99 0.66 1.98 1 3 C1.66 3 2.32 3 3 3 C3 4.65 3 6.3 3 8 C2.01 8.495 2.01 8.495 1 9 C-1.125 2.25 -1.125 2.25 0 0 Z " fill="#E77A83" transform="translate(63,72)"/>
<path d="M0 0 C2.18975773 3.28463659 2.99806563 6.20696275 4 10 C3.01 9.67 2.02 9.34 1 9 C0.67 6.03 0.34 3.06 0 0 Z " fill="#F1BC67" transform="translate(167,48)"/>
<path d="M0 0 C1.65 1.65 3.3 3.3 5 5 C2.50907189 6.24546405 1.58919267 5.7767578 -1 5 C-0.67 3.35 -0.34 1.7 0 0 Z " fill="#F6B252" transform="translate(140,8)"/>
</svg>
